<svg width="178" height="40" viewBox="0 0 178 40" fill="none" xmlns="http://www.w3.org/2000/svg">
    <path d="M6.65856 20.1843C5.53728 20.1843 4.53888 19.9923 3.66336 19.6083C2.78784 19.2243 2.09664 18.7021 1.58976 18.0416C1.08288 17.3658 0.79872 16.6131 0.73728 15.7837H4.63104C4.67712 16.2291 4.88448 16.5901 5.25312 16.8666C5.62176 17.143 6.07488 17.2813 6.61248 17.2813C7.104 17.2813 7.48032 17.1891 7.74144 17.0048C8.01792 16.8051 8.15616 16.5517 8.15616 16.2445C8.15616 15.8758 7.96416 15.607 7.58016 15.4381C7.19616 15.2538 6.57408 15.0541 5.71392 14.839C4.79232 14.624 4.02432 14.4013 3.40992 14.1709C2.79552 13.9251 2.2656 13.5488 1.82016 13.0419C1.37472 12.5197 1.152 11.8208 1.152 10.9453C1.152 10.208 1.35168 9.53984 1.75104 8.9408C2.16576 8.3264 2.7648 7.84256 3.54816 7.48928C4.34688 7.136 5.29152 6.95936 6.38208 6.95936C7.99488 6.95936 9.26208 7.35872 10.1837 8.15744C11.1206 8.95616 11.6582 10.016 11.7965 11.337H8.15616C8.09472 10.8915 7.89504 10.5382 7.55712 10.2771C7.23456 10.016 6.80448 9.88544 6.26688 9.88544C5.80608 9.88544 5.4528 9.9776 5.20704 10.1619C4.96128 10.3309 4.8384 10.569 4.8384 10.8762C4.8384 11.2448 5.0304 11.5213 5.4144 11.7056C5.81376 11.8899 6.42816 12.0742 7.2576 12.2586C8.20992 12.5043 8.9856 12.7501 9.58464 12.9958C10.1837 13.2262 10.7059 13.6102 11.1514 14.1478C11.6122 14.6701 11.8502 15.3766 11.8656 16.2675C11.8656 17.0202 11.6506 17.696 11.2205 18.295C10.8058 18.8787 10.199 19.3395 9.40032 19.6774C8.61696 20.0154 7.70304 20.1843 6.65856 20.1843ZM13.4926 13.5488C13.4926 12.2278 13.7384 11.0682 14.2299 10.0698C14.7368 9.07136 15.4203 8.30336 16.2805 7.76576C17.1406 7.22816 18.1006 6.95936 19.1605 6.95936C20.0667 6.95936 20.8577 7.14368 21.5336 7.51232C22.2248 7.88096 22.7547 8.3648 23.1233 8.96384V7.14368H27.0632V20H23.1233V18.1798C22.7393 18.7789 22.2017 19.2627 21.5105 19.6314C20.8347 20 20.0437 20.1843 19.1374 20.1843C18.0929 20.1843 17.1406 19.9155 16.2805 19.3779C15.4203 18.825 14.7368 18.0493 14.2299 17.0509C13.7384 16.0371 13.4926 14.8698 13.4926 13.5488ZM23.1233 13.5718C23.1233 12.5888 22.8469 11.8131 22.2939 11.2448C21.7563 10.6765 21.0958 10.3923 20.3125 10.3923C19.5291 10.3923 18.8609 10.6765 18.308 11.2448C17.7704 11.7978 17.5016 12.5658 17.5016 13.5488C17.5016 14.5318 17.7704 15.3152 18.308 15.8989C18.8609 16.4672 19.5291 16.7514 20.3125 16.7514C21.0958 16.7514 21.7563 16.4672 22.2939 15.8989C22.8469 15.3306 23.1233 14.5549 23.1233 13.5718ZM35.1436 20.1843C34.0223 20.1843 33.0239 19.9923 32.1484 19.6083C31.2728 19.2243 30.5816 18.7021 30.0748 18.0416C29.5679 17.3658 29.2837 16.6131 29.2223 15.7837H33.116C33.1621 16.2291 33.3695 16.5901 33.7381 16.8666C34.1068 17.143 34.5599 17.2813 35.0975 17.2813C35.589 17.2813 35.9653 17.1891 36.2264 17.0048C36.5029 16.8051 36.6412 16.5517 36.6412 16.2445C36.6412 15.8758 36.4492 15.607 36.0652 15.4381C35.6812 15.2538 35.0591 15.0541 34.1989 14.839C33.2773 14.624 32.5093 14.4013 31.8949 14.1709C31.2805 13.9251 30.7506 13.5488 30.3052 13.0419C29.8597 12.5197 29.637 11.8208 29.637 10.9453C29.637 10.208 29.8367 9.53984 30.236 8.9408C30.6508 8.3264 31.2498 7.84256 32.0332 7.48928C32.8319 7.136 33.7765 6.95936 34.8671 6.95936C36.4799 6.95936 37.7471 7.35872 38.6687 8.15744C39.6056 8.95616 40.1432 10.016 40.2815 11.337H36.6412C36.5797 10.8915 36.38 10.5382 36.0421 10.2771C35.7196 10.016 35.2895 9.88544 34.7519 9.88544C34.2911 9.88544 33.9378 9.9776 33.692 10.1619C33.4463 10.3309 33.3234 10.569 33.3234 10.8762C33.3234 11.2448 33.5154 11.5213 33.8994 11.7056C34.2988 11.8899 34.9132 12.0742 35.7426 12.2586C36.6949 12.5043 37.4706 12.7501 38.0696 12.9958C38.6687 13.2262 39.1909 13.6102 39.6364 14.1478C40.0972 14.6701 40.3352 15.3766 40.3506 16.2675C40.3506 17.0202 40.1356 17.696 39.7055 18.295C39.2908 18.8787 38.684 19.3395 37.8853 19.6774C37.102 20.0154 36.188 20.1843 35.1436 20.1843ZM49.9264 16.6592V20H47.9219C46.4935 20 45.3799 19.6544 44.5811 18.9632C43.7824 18.2566 43.3831 17.1123 43.3831 15.5302V10.4154H41.8163V7.14368H43.3831V4.01024H47.3229V7.14368H49.9034V10.4154H47.3229V15.5763C47.3229 15.9603 47.4151 16.2368 47.5994 16.4058C47.7837 16.5747 48.0909 16.6592 48.521 16.6592H49.9264ZM57.9731 20.1843C56.7136 20.1843 55.577 19.9155 54.5632 19.3779C53.5648 18.8403 52.7738 18.0723 52.1901 17.0739C51.6218 16.0755 51.3376 14.9082 51.3376 13.5718C51.3376 12.2509 51.6295 11.0912 52.2131 10.0928C52.7968 9.07904 53.5955 8.30336 54.6093 7.76576C55.6231 7.22816 56.7597 6.95936 58.0192 6.95936C59.2787 6.95936 60.4154 7.22816 61.4291 7.76576C62.4429 8.30336 63.2416 9.07904 63.8253 10.0928C64.409 11.0912 64.7008 12.2509 64.7008 13.5718C64.7008 14.8928 64.4013 16.0602 63.8023 17.0739C63.2186 18.0723 62.4122 18.8403 61.3831 19.3779C60.3693 19.9155 59.2327 20.1843 57.9731 20.1843ZM57.9731 16.7744C58.7258 16.7744 59.3632 16.4979 59.8855 15.945C60.4231 15.392 60.6919 14.601 60.6919 13.5718C60.6919 12.5427 60.4307 11.7517 59.9085 11.1987C59.4016 10.6458 58.7719 10.3693 58.0192 10.3693C57.2512 10.3693 56.6138 10.6458 56.1069 11.1987C55.6 11.7363 55.3466 12.5274 55.3466 13.5718C55.3466 14.601 55.5923 15.392 56.0839 15.945C56.5907 16.4979 57.2205 16.7744 57.9731 16.7744ZM120.902 20.1843C120.21 20.1843 119.642 19.9846 119.197 19.5853C118.767 19.1706 118.552 18.6637 118.552 18.0646C118.552 17.4502 118.767 16.9357 119.197 16.521C119.642 16.1062 120.21 15.8989 120.902 15.8989C121.578 15.8989 122.13 16.1062 122.561 16.521C123.006 16.9357 123.229 17.4502 123.229 18.0646C123.229 18.6637 123.006 19.1706 122.561 19.5853C122.13 19.9846 121.578 20.1843 120.902 20.1843ZM124.778 13.5718C124.778 12.2355 125.046 11.0682 125.584 10.0698C126.137 9.07136 126.897 8.30336 127.865 7.76576C128.848 7.22816 129.969 6.95936 131.229 6.95936C132.842 6.95936 134.186 7.38176 135.261 8.22656C136.351 9.07136 137.066 10.2618 137.404 11.7978H133.21C132.857 10.8147 132.173 10.3232 131.16 10.3232C130.438 10.3232 129.862 10.6074 129.432 11.1757C129.002 11.7286 128.787 12.5274 128.787 13.5718C128.787 14.6163 129.002 15.4227 129.432 15.991C129.862 16.544 130.438 16.8205 131.16 16.8205C132.173 16.8205 132.857 16.329 133.21 15.3459H137.404C137.066 16.8512 136.351 18.0339 135.261 18.8941C134.17 19.7542 132.826 20.1843 131.229 20.1843C129.969 20.1843 128.848 19.9155 127.865 19.3779C126.897 18.8403 126.137 18.0723 125.584 17.0739C125.046 16.0755 124.778 14.9082 124.778 13.5718ZM145.363 20.1843C144.104 20.1843 142.967 19.9155 141.953 19.3779C140.955 18.8403 140.164 18.0723 139.58 17.0739C139.012 16.0755 138.728 14.9082 138.728 13.5718C138.728 12.2509 139.019 11.0912 139.603 10.0928C140.187 9.07904 140.986 8.30336 141.999 7.76576C143.013 7.22816 144.15 6.95936 145.409 6.95936C146.669 6.95936 147.805 7.22816 148.819 7.76576C149.833 8.30336 150.632 9.07904 151.215 10.0928C151.799 11.0912 152.091 12.2509 152.091 13.5718C152.091 14.8928 151.791 16.0602 151.192 17.0739C150.609 18.0723 149.802 18.8403 148.773 19.3779C147.759 19.9155 146.623 20.1843 145.363 20.1843ZM145.363 16.7744C146.116 16.7744 146.753 16.4979 147.275 15.945C147.813 15.392 148.082 14.601 148.082 13.5718C148.082 12.5427 147.821 11.7517 147.299 11.1987C146.792 10.6458 146.162 10.3693 145.409 10.3693C144.641 10.3693 144.004 10.6458 143.497 11.1987C142.99 11.7363 142.737 12.5274 142.737 13.5718C142.737 14.601 142.982 15.392 143.474 15.945C143.981 16.4979 144.611 16.7744 145.363 16.7744ZM170.585 7.00544C172.183 7.00544 173.45 7.48928 174.387 8.45696C175.339 9.42464 175.816 10.7686 175.816 12.489V20H171.899V13.0189C171.899 12.1894 171.676 11.552 171.231 11.1066C170.801 10.6458 170.201 10.4154 169.433 10.4154C168.665 10.4154 168.059 10.6458 167.613 11.1066C167.183 11.552 166.968 12.1894 166.968 13.0189V20H163.051V13.0189C163.051 12.1894 162.829 11.552 162.383 11.1066C161.953 10.6458 161.354 10.4154 160.586 10.4154C159.818 10.4154 159.211 10.6458 158.766 11.1066C158.336 11.552 158.121 12.1894 158.121 13.0189V20H154.181V7.14368H158.121V8.75648C158.52 8.21888 159.042 7.79648 159.688 7.48928C160.333 7.16672 161.062 7.00544 161.876 7.00544C162.844 7.00544 163.704 7.2128 164.457 7.62752C165.225 8.04224 165.824 8.6336 166.254 9.4016C166.699 8.69504 167.306 8.11904 168.074 7.6736C168.842 7.22816 169.679 7.00544 170.585 7.00544Z" fill="#613E98"></path>
    <path d="M66.0076 13.5488C66.0076 12.2278 66.2534 11.0682 66.7449 10.0698C67.2518 9.07136 67.9353 8.30336 68.7955 7.76576C69.6556 7.22816 70.6156 6.95936 71.6755 6.95936C72.5203 6.95936 73.2883 7.136 73.9795 7.48928C74.686 7.84256 75.239 8.31872 75.6383 8.91776V2.9504H79.5782V20H75.6383V18.1568C75.2697 18.7712 74.7398 19.2627 74.0486 19.6314C73.3727 20 72.5817 20.1843 71.6755 20.1843C70.6156 20.1843 69.6556 19.9155 68.7955 19.3779C67.9353 18.825 67.2518 18.0493 66.7449 17.0509C66.2534 16.0371 66.0076 14.8698 66.0076 13.5488ZM75.6383 13.5718C75.6383 12.5888 75.3619 11.8131 74.8089 11.2448C74.2713 10.6765 73.6108 10.3923 72.8275 10.3923C72.0441 10.3923 71.3759 10.6765 70.823 11.2448C70.2854 11.7978 70.0166 12.5658 70.0166 13.5488C70.0166 14.5318 70.2854 15.3152 70.823 15.8989C71.3759 16.4672 72.0441 16.7514 72.8275 16.7514C73.6108 16.7514 74.2713 16.4672 74.8089 15.8989C75.3619 15.3306 75.6383 14.5549 75.6383 13.5718ZM94.5475 13.3645C94.5475 13.7331 94.5245 14.1171 94.4784 14.5165H85.5619C85.6234 15.3152 85.8768 15.9296 86.3222 16.3597C86.783 16.7744 87.3437 16.9818 88.0042 16.9818C88.9872 16.9818 89.6707 16.567 90.0547 15.7376H94.248C94.033 16.5824 93.6413 17.3427 93.073 18.0186C92.52 18.6944 91.8211 19.2243 90.9763 19.6083C90.1315 19.9923 89.1869 20.1843 88.1424 20.1843C86.8829 20.1843 85.7616 19.9155 84.7786 19.3779C83.7955 18.8403 83.0275 18.0723 82.4746 17.0739C81.9216 16.0755 81.6451 14.9082 81.6451 13.5718C81.6451 12.2355 81.9139 11.0682 82.4515 10.0698C83.0045 9.07136 83.7725 8.30336 84.7555 7.76576C85.7386 7.22816 86.8675 6.95936 88.1424 6.95936C89.3866 6.95936 90.4925 7.22048 91.4602 7.74272C92.4278 8.26496 93.1805 9.00992 93.7181 9.9776C94.271 10.9453 94.5475 12.0742 94.5475 13.3645ZM90.5155 12.3277C90.5155 11.6518 90.2851 11.1142 89.8243 10.7149C89.3635 10.3155 88.7875 10.1158 88.0963 10.1158C87.4358 10.1158 86.8752 10.3078 86.4144 10.6918C85.969 11.0758 85.6925 11.6211 85.585 12.3277H90.5155ZM95.8426 13.5488C95.8426 12.2278 96.0884 11.0682 96.5799 10.0698C97.0868 9.07136 97.7703 8.30336 98.6305 7.76576C99.4906 7.22816 100.451 6.95936 101.51 6.95936C102.417 6.95936 103.208 7.14368 103.884 7.51232C104.575 7.88096 105.105 8.3648 105.473 8.96384V7.14368H109.413V20H105.473V18.1798C105.089 18.7789 104.552 19.2627 103.861 19.6314C103.185 20 102.394 20.1843 101.487 20.1843C100.443 20.1843 99.4906 19.9155 98.6305 19.3779C97.7703 18.825 97.0868 18.0493 96.5799 17.0509C96.0884 16.0371 95.8426 14.8698 95.8426 13.5488ZM105.473 13.5718C105.473 12.5888 105.197 11.8131 104.644 11.2448C104.106 10.6765 103.446 10.3923 102.662 10.3923C101.879 10.3923 101.211 10.6765 100.658 11.2448C100.12 11.7978 99.8516 12.5658 99.8516 13.5488C99.8516 14.5318 100.12 15.3152 100.658 15.8989C101.211 16.4672 101.879 16.7514 102.662 16.7514C103.446 16.7514 104.106 16.4672 104.644 15.8989C105.197 15.3306 105.473 14.5549 105.473 13.5718ZM116.203 2.9504V20H112.263V2.9504H116.203Z" fill="#43A69B"></path>
</svg>